<?xml version="1.0" standalone="no"?>
<!DOCTYPE svg PUBLIC "-//W3C//DTD SVG 20010904//EN"
 "http://www.w3.org/TR/2001/REC-SVG-20010904/DTD/svg10.dtd">
<svg version="1.0" xmlns="http://www.w3.org/2000/svg"
 width="700.000000pt" height="700.000000pt" viewBox="0 0 700.000000 700.000000"
 preserveAspectRatio="xMidYMid meet">
<metadata>
Created by potrace 1.14, written by Peter Selinger 2001-2017
</metadata>
<g transform="translate(0.000000,700.000000) scale(0.100000,-0.100000)"
fill="#000000" stroke="none">
<path d="M3278 6995 c-1 -1 -42 -5 -89 -9 -47 -4 -95 -8 -106 -10 -11 -3 -44
-7 -74 -11 -313 -38 -709 -158 -1024 -311 -180 -87 -448 -247 -555 -331 -8 -6
-51 -40 -95 -74 -353 -275 -673 -651 -897 -1054 -49 -87 -148 -289 -148 -301
0 -2 -9 -23 -20 -47 -57 -123 -157 -435 -186 -582 -2 -11 -10 -54 -19 -95 -29
-147 -35 -194 -52 -370 -15 -163 -8 -592 12 -711 2 -13 6 -46 9 -74 9 -78 22
-152 51 -285 21 -96 91 -339 114 -395 5 -11 25 -65 46 -120 63 -166 249 -531
312 -610 4 -6 34 -49 65 -95 170 -255 433 -535 708 -755 92 -74 370 -265 386
-265 4 0 15 -6 23 -14 48 -41 400 -206 578 -271 214 -77 472 -141 692 -171 25
-3 57 -8 71 -10 193 -30 697 -24 907 10 21 4 52 8 68 10 47 6 183 33 255 51
36 9 72 17 81 20 37 8 169 48 239 72 434 147 875 406 1209 711 123 112 251
243 251 258 0 7 -45 140 -101 296 -113 318 -255 718 -271 763 -5 17 -14 39
-18 50 -5 11 -23 63 -41 115 -18 52 -49 140 -69 195 l-35 100 -1290 0 c-853 0
-1290 -3 -1291 -10 0 -5 -3 -17 -7 -25 -3 -8 -141 -397 -306 -865 -166 -467
-307 -861 -314 -875 l-13 -25 -393 0 c-256 0 -395 3 -397 10 -3 8 135 400 165
470 5 11 33 85 61 165 65 179 149 408 160 435 4 11 32 85 60 165 29 80 72 198
97 263 48 130 254 689 285 777 41 113 199 546 207 565 9 22 18 46 151 410 119
325 112 304 154 420 21 55 53 145 73 200 19 55 41 114 48 130 8 17 27 68 43
115 17 47 53 148 82 225 28 77 75 205 105 285 29 80 88 240 130 355 42 116 85
233 96 260 10 28 48 131 84 230 37 99 80 216 96 260 16 44 53 145 83 225 29
80 52 147 49 150 -4 4 -489 10 -495 5z"/>
<path d="M4877 6662 c14 -37 42 -114 63 -172 21 -58 54 -148 73 -200 20 -52
54 -147 77 -210 23 -63 45 -124 50 -135 8 -19 38 -101 180 -490 34 -93 75
-204 90 -245 15 -41 56 -151 90 -245 61 -168 107 -292 136 -370 8 -22 19 -51
24 -65 4 -14 76 -209 160 -435 83 -225 153 -417 155 -425 2 -8 19 -55 38 -105
19 -49 55 -146 80 -215 25 -69 71 -192 101 -275 30 -82 112 -305 182 -495 70
-190 140 -381 156 -425 17 -44 33 -90 35 -103 3 -12 9 -25 14 -28 5 -3 9 -12
9 -20 0 -8 7 -31 16 -52 l16 -37 22 45 c12 25 34 74 50 110 16 36 36 83 46
105 54 123 147 418 176 560 61 295 78 462 79 750 0 187 -10 407 -20 438 -2 7
-6 35 -9 62 -3 28 -8 61 -11 75 -3 14 -7 39 -10 55 -93 547 -351 1119 -700
1555 -143 179 -341 384 -485 502 -36 29 -74 61 -85 71 -43 39 -270 195 -377
260 -104 62 -321 174 -410 210 l-36 15 25 -66z"/>
<path d="M4190 6083 c-28 -82 -55 -157 -60 -168 -8 -17 -129 -360 -292 -825
-22 -63 -44 -124 -49 -135 -5 -11 -13 -33 -19 -50 -10 -32 -38 -113 -210 -595
-250 -702 -330 -931 -330 -941 0 -5 468 -9 1041 -9 988 0 1041 1 1034 18 -4 9
-11 28 -15 42 -4 14 -29 84 -55 155 -25 72 -61 173 -80 225 -18 52 -56 160
-85 240 -29 80 -69 195 -90 255 -22 61 -59 166 -83 235 -25 69 -70 197 -102
285 -31 88 -93 261 -137 385 -44 124 -92 261 -108 305 -16 44 -53 150 -83 235
-138 388 -167 471 -167 480 0 6 -13 10 -29 10 -28 0 -30 -4 -81 -147z"/>
</g>
</svg>
